<!DOCTYPE svg PUBLIC "-//W3C//DTD SVG 20010904//EN" "http://www.w3.org/TR/2001/REC-SVG-20010904/DTD/svg10.dtd">
<svg version="1.0" xmlns="http://www.w3.org/2000/svg" width="152px" height="156px" viewBox="0 0 1520 1560" preserveAspectRatio="xMidYMid meet">
<g id="layer101" fill="#000000" stroke="none">
<path d="M400 1549 c-14 -6 -36 -21 -50 -34 -15 -15 -61 -35 -115 -50 -115 -34 -161 -59 -203 -115 -30 -39 -34 -50 -29 -90 4 -36 11 -50 38 -70 88 -65 255 -263 308 -365 24 -46 24 -47 5 -57 -38 -20 -142 -137 -168 -189 -17 -35 -26 -69 -26 -101 0 -42 -3 -49 -29 -62 -28 -15 -71 -86 -71 -117 0 -8 9 -32 19 -55 14 -31 28 -45 60 -57 49 -20 92 -22 109 -5 9 9 17 7 34 -10 50 -46 177 -89 375 -124 47 -8 81 -8 134 1 67 11 73 10 93 -8 59 -55 141 -54 203 2 46 42 37 136 -18 188 -26 24 -27 28 -17 70 5 24 8 82 6 129 -5 104 -35 176 -104 250 l-48 51 19 32 c52 89 190 256 254 306 l40 32 85 -85 c115 -117 145 -114 196 20 42 114 14 366 -46 411 -12 9 -32 12 -55 9 -21 -3 -80 4 -145 19 -152 33 -274 45 -482 45 -166 0 -180 1 -197 20 -15 16 -30 20 -84 19 -36 0 -77 -5 -91 -10z"/>
</g>
<g id="layer102" fill="#010631" stroke="none">
<path d="M402 1483 c-40 -37 -55 -94 -50 -186 3 -71 6 -79 38 -112 32 -33 35 -34 57 -20 12 8 37 15 56 15 24 0 41 8 62 30 25 27 30 40 33 99 6 98 -18 168 -64 187 -54 22 -99 18 -132 -13z m38 -3 c-6 -11 -16 -20 -22 -20 -6 0 -3 9 7 20 10 11 20 20 22 20 2 0 -1 -9 -7 -20z"/>
<path d="M1125 1399 c-27 -4 -101 -12 -163 -18 -63 -5 -116 -12 -119 -15 -9 -9 18 -36 37 -36 9 0 29 -10 43 -23 15 -12 48 -29 74 -36 27 -8 66 -23 88 -34 72 -35 204 -138 256 -199 59 -67 87 -73 102 -23 5 17 9 106 10 200 l2 170 -50 11 c-58 14 -207 15 -280 3z m155 -34 c0 -14 -4 -25 -9 -25 -5 0 -8 11 -7 25 1 33 16 33 16 0z m-220 -10 c0 -14 -4 -25 -10 -25 -5 0 -10 11 -10 25 0 14 5 25 10 25 6 0 10 -11 10 -25z"/>
<path d="M667 1304 c-3 -11 -8 -32 -12 -48 -15 -66 -125 -166 -184 -166 -16 0 -41 4 -55 10 -25 9 -26 8 -26 -27 0 -21 9 -73 19 -118 11 -44 22 -92 25 -107 6 -24 9 -26 36 -18 44 13 197 15 212 3 7 -6 30 -16 50 -22 l37 -12 -22 -37 c-11 -20 -24 -39 -27 -42 -3 -3 -6 -12 -8 -20 -2 -8 -10 -22 -18 -31 -22 -25 -17 -35 29 -53 65 -25 86 -22 94 14 3 17 10 33 15 36 6 4 7 -2 3 -16 -4 -12 -7 -49 -6 -81 0 -33 -4 -59 -9 -59 -6 0 -10 11 -10 25 0 27 -17 34 -26 11 -9 -23 -104 12 -104 38 l-1 21 -17 -20 c-9 -12 -25 -24 -35 -28 -19 -7 -15 0 72 155 23 42 7 48 -131 48 -103 0 -124 -3 -170 -24 -101 -47 -167 -131 -175 -226 -5 -55 -4 -63 16 -76 11 -8 21 -21 21 -29 0 -15 -50 -35 -86 -35 -39 0 -67 -36 -61 -77 9 -56 31 -73 94 -73 46 0 56 3 60 20 5 20 43 29 43 9 0 -20 64 -69 90 -69 16 0 37 -11 51 -26 56 -62 190 -79 333 -44 l89 21 24 -25 c13 -14 28 -26 34 -26 6 0 17 -7 25 -15 21 -21 77 -19 97 3 19 21 22 68 8 105 -7 17 -21 28 -41 32 -30 7 -31 9 -24 39 4 17 8 76 8 131 1 88 -2 107 -25 155 -15 32 -52 82 -87 118 -34 34 -62 71 -62 81 0 11 -4 23 -10 26 -17 10 -11 25 9 25 15 0 25 17 45 81 32 99 46 187 46 296 0 78 -1 83 -27 101 -44 31 -103 52 -164 59 -50 5 -57 3 -62 -13z m-168 -353 c-2 -33 -6 -38 -26 -38 -20 0 -23 4 -23 38 0 35 3 39 25 39 24 0 26 -3 24 -39z m331 -145 c0 -9 -7 -12 -20 -9 -31 8 -34 23 -6 23 16 0 26 -6 26 -14z m-350 -156 c0 -14 -38 -32 -58 -28 -13 3 -10 8 13 21 35 19 45 21 45 7z m242 -187 c10 -9 18 -22 18 -28 0 -7 7 -18 15 -25 14 -11 14 -15 -2 -32 -17 -19 -17 -19 -25 1 -4 12 -16 21 -28 21 -11 0 -20 5 -20 10 0 6 -9 10 -20 10 -14 0 -20 7 -20 24 0 37 49 49 82 19z m-162 -63 c14 -27 4 -60 -19 -60 -24 0 -46 47 -30 66 16 20 37 17 49 -6z m-347 -69 c6 -25 -50 -70 -59 -47 -4 9 5 25 23 40 15 14 29 26 29 26 1 0 4 -9 7 -19z m597 -14 c0 -25 -17 -39 -39 -32 -24 7 -26 17 -11 46 9 15 15 17 30 9 11 -6 20 -16 20 -23z m235 -207 c9 -15 -33 -50 -57 -49 l-23 2 23 4 c26 5 29 18 6 27 -8 3 -13 9 -10 14 7 11 54 13 61 2z"/>
<path d="M61 1297 c-14 -6 -26 -16 -28 -22 -4 -15 47 -68 95 -99 23 -15 47 -38 52 -51 5 -13 18 -30 30 -37 11 -7 39 -39 62 -70 23 -32 45 -58 50 -58 4 0 8 -7 8 -15 0 -8 5 -15 10 -15 23 0 6 59 -54 183 -35 73 -67 140 -70 150 -12 38 -107 59 -155 34z"/>
<path d="M1017 1152 c-36 -36 -38 -42 -42 -113 -2 -41 -9 -87 -14 -102 -24 -64 -6 -52 94 59 58 64 105 122 105 129 0 8 -10 17 -22 21 -13 4 -34 15 -47 25 -13 11 -26 19 -30 19 -3 -1 -23 -18 -44 -38z"/>
<path d="M351 910 c0 -8 4 -24 9 -35 l9 -20 0 20 c0 11 -4 27 -9 35 -9 13 -10 13 -9 0z"/>
</g>
<g id="layer103" fill="#2b2e2f" stroke="none">
<path d="M401 1549 c-13 -5 -39 -23 -58 -39 -18 -17 -44 -31 -56 -31 -18 -1 -19 -2 -3 -6 11 -3 41 11 74 34 50 34 63 38 123 40 54 1 73 -2 93 -18 21 -16 37 -19 93 -16 l68 3 -71 2 c-57 2 -75 6 -89 22 -15 16 -30 20 -84 19 -36 0 -77 -5 -90 -10z"/>
<path d="M853 1513 c26 -2 68 -2 95 0 26 2 4 3 -48 3 -52 0 -74 -1 -47 -3z"/>
<path d="M1038 1503 c12 -2 30 -2 40 0 9 3 -1 5 -23 4 -22 0 -30 -2 -17 -4z"/>
<path d="M1113 1493 c9 -2 25 -2 35 0 9 3 1 5 -18 5 -19 0 -27 -2 -17 -5z"/>
<path d="M215 1460 c-13 -5 -14 -9 -5 -9 8 0 24 4 35 9 13 5 14 9 5 9 -8 0 -24 -4 -35 -9z"/>
<path d="M1315 1451 c3 -2 35 -7 72 -10 l68 -6 24 -50 c21 -45 24 -64 25 -185 1 -117 -2 -141 -20 -180 -28 -60 -51 -83 -79 -76 -12 3 -58 42 -101 86 -42 44 -82 80 -87 80 -43 0 -317 -327 -317 -377 0 -9 23 -40 50 -69 28 -29 60 -75 71 -101 27 -61 36 -191 19 -262 -12 -51 -12 -51 18 -79 41 -38 59 -100 42 -141 -15 -36 -66 -71 -104 -71 -32 0 -93 24 -118 47 -15 13 -26 14 -83 3 -61 -12 -88 -11 -185 5 -28 4 -31 4 -13 -4 39 -18 137 -23 202 -11 58 10 65 10 85 -9 59 -55 141 -55 203 2 46 42 37 136 -18 188 -26 24 -27 28 -17 70 5 24 8 82 6 129 -5 104 -35 176 -104 250 l-48 51 19 32 c52 89 190 256 254 306 l40 32 85 -85 c115 -117 145 -114 196 20 39 106 16 352 -39 407 -7 7 -41 12 -81 13 -38 0 -67 -2 -65 -5z"/>
<path d="M53 1375 c-48 -50 -58 -79 -49 -130 6 -28 18 -44 55 -70 78 -56 229 -239 292 -353 23 -43 23 -44 4 -54 -39 -20 -143 -137 -169 -189 -17 -35 -26 -69 -26 -101 0 -42 -3 -49 -29 -62 -27 -14 -71 -85 -71 -114 0 -6 7 -30 17 -53 12 -32 26 -46 57 -60 42 -19 101 -25 109 -11 3 4 -17 7 -43 8 -59 1 -97 24 -117 71 -13 33 -13 40 2 81 12 30 28 51 51 64 31 18 34 24 34 67 0 72 41 143 133 235 l80 79 -29 54 c-48 90 -149 216 -244 306 -84 79 -90 87 -90 124 0 50 22 95 63 128 18 13 28 25 23 25 -5 0 -29 -20 -53 -45z"/>
<path d="M1090 1395 c-47 -7 -73 -13 -57 -14 22 -1 27 -6 27 -26 0 -23 -4 -25 -45 -25 -48 0 -72 22 -44 42 9 6 -8 8 -54 5 -76 -5 -85 -10 -67 -32 14 -17 61 -20 76 -5 7 7 11 6 11 -5 0 -8 -4 -15 -9 -15 -24 0 -2 -21 40 -36 148 -53 285 -144 373 -246 59 -67 87 -73 102 -23 5 17 9 106 10 200 l2 170 -50 11 c-64 15 -206 15 -315 -1z m190 -30 c0 -22 -4 -25 -35 -25 -31 0 -35 3 -35 25 0 22 4 25 35 25 31 0 35 -3 35 -25z"/>
<path d="M667 1304 c-3 -11 -8 -31 -11 -47 -10 -43 -56 -101 -108 -136 -49 -32 -88 -38 -132 -21 -25 9 -26 8 -26 -27 0 -21 9 -73 19 -118 11 -44 22 -92 25 -107 6 -24 9 -26 36 -18 44 13 197 15 212 3 7 -6 30 -16 50 -22 l37 -12 -22 -37 c-11 -20 -24 -39 -27 -42 -3 -3 -6 -12 -8 -20 -2 -8 -10 -22 -18 -31 -8 -8 -14 -20 -14 -26 0 -22 129 -57 131 -35 3 27 9 46 19 56 9 8 11 5 5 -13 -4 -13 -7 -50 -6 -82 0 -33 -4 -59 -9 -59 -6 0 -10 11 -10 25 0 27 -17 34 -26 11 -9 -23 -104 12 -104 38 l-1 21 -17 -20 c-9 -12 -25 -24 -35 -28 -19 -7 -15 0 72 155 23 42 7 48 -131 48 -103 0 -124 -3 -170 -24 -101 -47 -167 -131 -175 -226 -5 -54 -3 -63 14 -75 23 -16 37 -53 19 -51 -6 0 -37 -5 -69 -12 -64 -15 -83 -36 -73 -85 10 -51 32 -67 93 -67 46 0 56 3 60 20 7 26 40 26 48 0 7 -23 64 -60 92 -60 11 0 28 -9 39 -21 58 -65 194 -84 338 -49 l89 21 24 -25 c13 -14 30 -26 38 -26 8 0 15 -5 15 -10 0 -6 11 -8 28 -4 37 9 39 12 16 29 -10 8 -17 15 -14 16 36 8 60 8 65 0 7 -12 -26 -47 -52 -54 -11 -3 -6 -5 13 -6 38 -1 64 25 64 65 0 54 -11 73 -47 85 -33 10 -34 13 -28 43 4 17 9 71 12 120 4 86 3 91 -31 160 -33 66 -116 166 -137 166 -5 0 -9 13 -9 29 0 17 -4 33 -10 36 -17 10 -11 25 9 25 15 0 24 18 46 88 33 105 45 180 45 289 0 78 -1 83 -27 101 -44 31 -103 52 -164 59 -50 5 -57 3 -62 -13z m-167 -354 c0 -36 -2 -40 -25 -40 -22 0 -25 4 -25 40 0 36 3 40 25 40 23 0 25 -4 25 -40z m330 -144 c0 -9 -7 -12 -20 -9 -31 8 -34 23 -6 23 16 0 26 -6 26 -14z m-320 -140 c0 -8 -6 -16 -12 -19 -7 -3 -40 -17 -73 -32 l-60 -26 34 28 c35 29 90 62 104 63 4 0 7 -6 7 -14z m-162 -105 c-7 -12 -19 -21 -27 -21 -10 0 -7 8 9 25 27 29 37 27 18 -4z m-18 -100 c0 -20 -6 -30 -19 -34 -25 -6 -31 0 -31 35 0 23 4 28 25 28 21 0 25 -5 25 -29z m392 2 c10 -9 18 -22 18 -28 0 -7 7 -18 15 -25 14 -11 14 -15 -2 -32 -17 -19 -17 -19 -25 1 -4 12 -16 21 -28 21 -11 0 -20 5 -20 10 0 6 -9 10 -20 10 -14 0 -20 7 -20 24 0 37 49 49 82 19z m-162 -63 c14 -27 4 -60 -19 -60 -26 0 -48 45 -31 65 17 21 37 19 50 -5z m-347 -69 c6 -25 -50 -70 -59 -47 -4 9 5 25 23 40 15 14 29 26 29 26 1 0 4 -9 7 -19z m597 -11 c0 -22 -14 -40 -31 -40 -25 0 -34 23 -19 49 9 17 15 19 30 11 11 -6 20 -15 20 -20z"/>
<path d="M70 1303 c-36 -13 -41 -25 -24 -52 21 -32 65 -71 80 -71 6 0 17 -7 24 -15 7 -9 15 -13 18 -11 2 3 -20 33 -49 67 -30 34 -49 60 -42 58 13 -5 150 -162 178 -204 11 -16 18 -37 17 -46 -2 -9 13 -29 32 -44 20 -15 33 -32 30 -36 -2 -4 0 -10 6 -14 23 -14 7 49 -34 131 -24 49 -57 119 -74 155 -25 54 -38 69 -63 78 -34 12 -74 13 -99 4z"/>
<path d="M279 176 c30 -36 213 -106 279 -106 30 0 4 10 -64 24 -75 16 -138 41 -194 78 -27 17 -32 18 -21 4z"/>
</g>
<g id="layer104" fill="#001c88" stroke="none">
<path d="M402 1483 c-40 -37 -55 -94 -50 -186 3 -71 6 -79 38 -112 32 -33 35 -34 57 -20 12 8 37 15 56 15 24 0 41 8 62 30 26 27 30 40 33 104 5 94 -23 169 -70 185 -54 19 -94 13 -126 -16z m38 -3 c-6 -11 -16 -20 -22 -20 -6 0 -3 9 7 20 10 11 20 20 22 20 2 0 -1 -9 -7 -20z"/>
<path d="M1090 1395 c-47 -7 -73 -13 -57 -14 22 -1 27 -6 27 -26 0 -23 -4 -25 -45 -25 -48 0 -72 23 -44 41 9 6 1 9 -27 9 -94 0 -131 -23 -70 -45 18 -6 33 -6 45 2 14 9 18 8 18 -3 0 -8 -4 -14 -9 -14 -24 0 -2 -21 40 -36 148 -53 285 -144 373 -246 59 -67 87 -73 102 -23 5 17 9 106 10 200 l2 170 -50 11 c-64 15 -206 15 -315 -1z m190 -30 c0 -22 -4 -25 -35 -25 -31 0 -35 3 -35 25 0 22 4 25 35 25 31 0 35 -3 35 -25z"/>
<path d="M667 1303 c-3 -10 -8 -30 -11 -46 -10 -43 -56 -101 -108 -136 -49 -32 -88 -38 -132 -21 -25 9 -26 8 -26 -26 0 -19 9 -74 21 -122 11 -48 22 -97 25 -109 3 -19 8 -21 34 -13 44 13 197 15 212 3 7 -6 30 -16 50 -22 l37 -12 -22 -37 c-11 -20 -24 -39 -27 -42 -3 -3 -6 -12 -8 -20 -2 -8 -10 -22 -18 -31 -22 -25 -17 -35 29 -53 57 -22 87 -21 87 2 0 10 7 27 16 38 15 18 15 18 8 -5 -3 -13 -6 -50 -5 -82 0 -32 -4 -61 -9 -64 -6 -4 -10 7 -10 24 0 34 -7 39 -24 16 -10 -14 -16 -14 -53 -1 -28 10 -45 11 -49 5 -8 -13 -10 -11 59 -39 77 -30 67 -35 -16 -7 -54 18 -65 25 -57 37 5 8 10 26 10 39 0 20 -2 21 -15 11 -8 -7 -15 -23 -15 -36 0 -13 -4 -24 -10 -24 -5 0 -7 7 -4 15 5 11 2 13 -12 8 -17 -6 -13 3 75 159 23 42 7 48 -131 48 -103 0 -124 -3 -170 -24 -101 -47 -167 -131 -175 -226 -5 -54 -3 -63 14 -75 23 -16 37 -53 19 -51 -6 0 -37 -5 -69 -12 -64 -15 -83 -36 -73 -85 10 -51 32 -67 93 -67 46 0 56 3 60 20 7 26 40 26 48 0 7 -23 64 -60 92 -60 11 0 28 -9 39 -21 58 -65 194 -84 338 -49 l89 21 24 -25 c13 -14 30 -26 38 -26 8 0 15 -5 15 -10 0 -6 11 -8 28 -4 37 9 39 12 16 29 -10 8 -17 15 -14 16 36 8 60 8 65 0 7 -12 -26 -47 -52 -54 -11 -3 -6 -5 13 -6 38 -1 64 25 64 65 0 54 -11 73 -47 85 -33 10 -34 13 -28 43 4 17 9 71 12 120 4 86 3 91 -31 160 -33 66 -116 166 -137 166 -5 0 -9 13 -9 29 0 17 -4 33 -10 36 -17 10 -11 25 9 25 15 0 24 18 46 88 33 105 45 180 45 289 0 80 -1 82 -31 104 -38 26 -139 59 -184 59 -24 0 -35 -5 -38 -17z m-167 -353 c0 -36 -2 -40 -25 -40 -22 0 -25 4 -25 40 0 36 3 40 25 40 23 0 25 -4 25 -40z m330 -144 c0 -9 -7 -12 -20 -9 -31 8 -34 23 -6 23 16 0 26 -6 26 -14z m-320 -140 c0 -8 -6 -16 -12 -19 -7 -3 -40 -17 -73 -32 l-60 -26 34 28 c35 29 90 62 104 63 4 0 7 -6 7 -14z m-162 -105 c-7 -12 -19 -21 -27 -21 -10 0 -7 8 9 25 27 29 37 27 18 -4z m-18 -100 c0 -20 -6 -30 -19 -34 -25 -6 -31 0 -31 35 0 23 4 28 25 28 21 0 25 -5 25 -29z m392 2 c10 -9 18 -22 18 -28 0 -7 7 -18 15 -25 14 -11 14 -15 -2 -32 -17 -19 -17 -19 -25 1 -4 12 -16 21 -28 21 -11 0 -20 5 -20 10 0 6 -9 10 -20 10 -14 0 -20 7 -20 24 0 37 49 49 82 19z m-162 -57 c18 -22 9 -60 -16 -64 -28 -4 -53 41 -34 63 16 19 34 19 50 1z m-347 -75 c6 -25 -50 -70 -59 -47 -4 9 5 25 23 40 15 14 29 26 29 26 1 0 4 -9 7 -19z m587 4 c18 -22 3 -57 -23 -53 -25 3 -34 32 -17 53 16 19 24 19 40 0z"/>
<path d="M64 1300 c-12 -5 -25 -13 -28 -18 -8 -13 44 -78 74 -93 14 -7 33 -20 43 -28 33 -28 17 2 -35 62 -29 33 -48 58 -41 56 13 -5 150 -162 178 -204 11 -16 18 -37 17 -46 -2 -9 13 -29 32 -44 20 -15 33 -32 30 -36 -2 -4 0 -10 6 -14 23 -14 7 49 -34 131 -24 49 -57 119 -74 155 -25 54 -38 69 -63 78 -37 13 -75 13 -105 1z"/>
<path d="M1017 1151 c-36 -34 -38 -40 -42 -111 -2 -42 -9 -88 -14 -103 -24 -64 -6 -52 94 59 58 64 105 122 105 129 0 8 -10 17 -22 21 -13 4 -34 15 -47 25 -13 11 -26 19 -30 18 -3 -1 -23 -17 -44 -38z"/>
</g>
<g id="layer105" fill="#0a2f6b" stroke="none">
<path d="M356 1397 c-12 -42 -3 -174 13 -189 12 -11 13 -10 6 2 -5 8 4 4 20 -10 l28 -25 -6 25 c-3 14 -13 45 -22 70 -10 25 -21 70 -24 100 -7 48 -8 52 -15 27z"/>
<path d="M866 1364 c-11 -10 -16 -11 -16 -3 0 7 -3 9 -7 5 -10 -10 25 -36 47 -36 9 0 31 11 50 25 l34 25 -46 0 c-29 0 -53 -6 -62 -16z"/>
<path d="M86 1301 c-3 -5 1 -14 9 -21 8 -7 15 -19 15 -26 0 -7 14 -20 30 -29 17 -9 30 -19 30 -24 0 -20 129 -175 139 -166 2 3 -21 57 -52 120 -43 88 -64 119 -89 135 -35 21 -73 26 -82 11z"/>
<path d="M40 1268 c0 -16 51 -68 67 -68 20 0 15 24 -9 47 -29 26 -58 36 -58 21z"/>
<path d="M840 1240 c-30 -5 -85 -8 -122 -9 l-68 -1 -20 -41 c-13 -25 -38 -51 -65 -67 -53 -32 -65 -61 -65 -151 l0 -67 73 -19 c45 -12 64 -21 50 -23 -39 -6 -26 -24 14 -19 21 3 45 0 57 -8 12 -7 30 -15 41 -17 32 -5 34 -17 11 -59 -13 -25 -26 -37 -35 -34 -11 4 -11 2 -2 -8 8 -11 7 -20 -9 -40 -28 -35 -26 -42 23 -61 54 -20 87 -21 87 0 0 8 5 25 12 37 13 25 11 86 -4 104 -5 7 -7 17 -3 23 4 7 -2 14 -14 17 -29 7 -26 23 4 23 16 0 25 -6 25 -16 0 -9 5 -14 11 -12 16 5 57 139 69 228 13 87 10 223 -5 225 -5 1 -35 -1 -65 -5z"/>
<path d="M1050 1171 c0 -5 -15 -18 -34 -29 -30 -18 -34 -25 -40 -82 -4 -34 -5 -64 -3 -66 6 -7 102 138 109 164 5 17 2 22 -13 22 -10 0 -19 -4 -19 -9z"/>
<path d="M390 1073 c0 -18 9 -73 21 -121 11 -48 22 -97 25 -109 4 -20 8 -21 30 -13 14 6 46 11 72 12 l47 1 -44 4 c-31 3 -50 12 -67 31 -22 24 -24 33 -20 92 3 36 8 76 11 90 6 23 2 27 -34 36 l-41 11 0 -34z"/>
<path d="M395 736 c-50 -23 -160 -130 -150 -147 3 -4 0 -9 -6 -11 -6 -2 -13 -31 -16 -64 -5 -56 -3 -63 21 -87 29 -29 33 -58 11 -77 -12 -10 -10 -16 16 -38 17 -14 35 -35 39 -47 11 -29 70 -73 70 -52 0 8 -6 20 -14 26 -23 19 -76 147 -83 198 -7 62 10 96 72 151 53 46 186 119 263 143 30 10 56 20 60 23 3 3 -48 6 -114 5 -102 0 -126 -3 -169 -23z"/>
<path d="M665 711 c-6 -5 -40 -18 -77 -29 -71 -22 -191 -79 -196 -93 -2 -5 -8 -9 -14 -9 -6 0 -19 -10 -29 -22 -15 -16 -19 -37 -19 -93 0 -88 19 -155 62 -219 18 -27 37 -57 42 -66 5 -10 31 -32 57 -50 45 -31 54 -33 141 -34 63 -1 118 5 170 18 l77 20 20 -25 c10 -13 31 -25 45 -27 31 -2 32 2 6 28 -24 24 -25 39 -5 46 22 9 80 -22 104 -54 l20 -27 1 42 c0 42 -18 65 -76 99 -18 11 -18 12 0 45 15 28 17 51 14 124 -3 87 -5 93 -48 160 -41 63 -95 124 -112 125 -12 0 -20 -41 -19 -101 0 -32 -4 -61 -9 -64 -6 -4 -10 7 -10 24 0 34 -7 39 -24 16 -10 -14 -16 -14 -53 -1 -28 10 -45 11 -49 5 -8 -13 -10 -11 59 -39 77 -30 67 -35 -16 -7 -54 18 -65 25 -57 37 5 8 10 26 10 39 0 20 -2 21 -15 11 -8 -7 -15 -23 -15 -36 0 -13 -4 -24 -10 -24 -5 0 -7 7 -4 15 5 11 2 13 -12 8 -13 -5 -7 13 24 69 23 42 42 81 42 87 0 13 -12 14 -25 2z m63 -243 c7 -7 12 -20 12 -29 0 -9 7 -22 15 -29 14 -12 13 -16 -7 -37 -28 -30 -57 -26 -122 17 -46 31 -46 32 -28 55 9 13 24 26 32 28 32 9 87 6 98 -5z m-168 -62 c18 -22 9 -60 -16 -64 -23 -3 -50 37 -41 62 8 20 41 21 57 2z m238 -68 c16 -16 15 -33 -4 -52 -21 -22 -41 -20 -49 5 -4 13 0 27 11 40 20 22 26 23 42 7z"/>
</g>
<g id="layer106" fill="#0253a3" stroke="none">
<path d="M452 1490 c-37 -35 -47 -94 -29 -178 23 -104 36 -126 74 -130 27 -3 36 3 68 45 36 47 37 50 33 120 -3 70 -5 74 -48 118 -49 50 -66 54 -98 25z"/>
<path d="M357 1407 c-9 -24 -9 -159 1 -172 4 -5 20 -21 36 -35 l29 -25 -6 25 c-3 14 -13 45 -22 70 -10 25 -20 70 -24 100 -4 38 -9 49 -14 37z"/>
<path d="M1090 1395 c-47 -7 -73 -13 -57 -14 22 -1 27 -6 27 -26 0 -23 -4 -24 -62 -27 -75 -4 -85 -24 -23 -43 54 -17 172 -72 180 -84 3 -6 21 -18 40 -27 39 -18 165 -133 165 -150 0 -20 38 -46 58 -40 25 8 30 33 38 181 l7 121 -32 27 c-22 18 -44 27 -67 27 -30 0 -34 3 -34 25 0 35 32 33 82 -6 21 -17 41 -30 43 -27 11 11 -10 47 -33 58 -37 18 -229 21 -332 5z m190 -30 c0 -25 -1 -25 -85 -25 -69 0 -85 3 -85 15 0 8 -8 16 -17 16 -33 3 62 16 125 18 60 1 62 0 62 -24z"/>
<path d="M871 1371 c-18 -12 -7 -41 17 -41 10 0 33 11 52 25 l34 25 -45 0 c-24 0 -50 -4 -58 -9z"/>
<path d="M666 1305 c-10 -28 3 -32 89 -25 74 5 78 7 52 18 -16 7 -52 15 -81 18 -45 5 -54 4 -60 -11z"/>
<path d="M86 1301 c-3 -5 1 -14 9 -21 8 -7 15 -19 15 -26 0 -7 14 -20 30 -29 17 -9 30 -19 30 -24 0 -10 115 -157 131 -166 17 -11 3 27 -53 138 -35 71 -57 103 -81 117 -34 21 -72 26 -81 11z"/>
<path d="M40 1268 c0 -16 51 -68 67 -68 33 0 5 43 -44 69 -18 9 -23 9 -23 -1z"/>
<path d="M840 1240 c-30 -5 -85 -8 -122 -9 l-68 -1 -20 -41 c-13 -25 -38 -51 -65 -67 -53 -32 -65 -61 -65 -152 l0 -67 56 -12 c30 -7 80 -26 111 -42 40 -21 69 -29 107 -29 29 0 57 -5 64 -12 13 -13 10 -17 41 74 38 110 55 358 26 363 -5 1 -35 -1 -65 -5z"/>
<path d="M1047 1166 c-3 -8 -18 -20 -34 -28 -23 -11 -29 -21 -36 -68 -4 -30 -6 -61 -5 -69 4 -20 108 134 108 159 0 23 -25 27 -33 6z"/>
<path d="M1069 1075 c-30 -35 -66 -79 -81 -97 -27 -33 -37 -68 -18 -68 5 0 22 16 37 36 15 20 52 64 81 97 46 53 66 97 44 97 -5 0 -33 -29 -63 -65z"/>
<path d="M390 1074 c0 -29 44 -232 52 -240 2 -1 35 1 73 5 61 7 64 9 25 10 -37 2 -49 8 -69 32 -21 27 -23 37 -18 92 4 34 9 73 12 87 6 23 2 27 -34 36 l-41 11 0 -33z"/>
<path d="M763 788 c-6 -7 -23 -39 -38 -70 -16 -32 -32 -58 -37 -58 -4 0 -8 -6 -8 -14 0 -15 73 -46 108 -46 18 0 22 6 22 30 0 17 4 30 8 30 13 0 14 80 2 95 -6 7 -9 19 -8 26 4 18 -36 23 -49 7z"/>
<path d="M425 749 c-49 -27 -102 -66 -120 -89 -11 -14 -30 -35 -42 -48 -12 -12 -23 -26 -24 -30 -1 -4 -5 -17 -10 -30 -18 -46 -11 -100 16 -126 28 -28 32 -58 10 -76 -12 -10 -10 -16 16 -38 17 -14 35 -35 39 -47 11 -29 70 -73 70 -52 0 8 -6 20 -14 26 -23 19 -76 147 -83 198 -7 62 10 96 72 151 53 46 186 119 263 143 30 10 56 20 60 23 10 11 -233 6 -253 -5z"/>
<path d="M665 702 c-86 -17 -265 -91 -273 -113 -2 -5 -8 -9 -14 -9 -6 0 -19 -10 -29 -22 -15 -16 -19 -37 -19 -93 0 -88 19 -155 62 -219 18 -27 37 -57 42 -66 5 -10 31 -32 57 -50 45 -31 54 -33 141 -34 63 -1 118 5 170 18 l77 20 20 -25 c10 -13 31 -25 45 -27 31 -2 32 2 6 28 -24 24 -25 39 -5 46 22 9 80 -22 104 -54 l20 -27 1 42 c0 41 -18 65 -76 99 -17 10 -17 12 0 48 14 30 17 57 14 125 -3 82 -5 89 -48 156 -41 63 -95 124 -112 125 -12 0 -20 -42 -19 -106 0 -36 -4 -64 -9 -64 -6 0 -10 14 -10 30 0 33 -7 38 -24 15 -10 -14 -16 -14 -53 -1 -28 10 -45 11 -49 5 -8 -13 -10 -11 59 -39 32 -12 56 -24 54 -27 -2 -2 -41 8 -85 22 -62 19 -80 29 -75 40 4 11 1 13 -13 8 -13 -5 -6 13 25 71 24 42 41 78 40 80 -2 1 -13 1 -24 -2z m81 -269 l22 -42 -24 -22 c-28 -26 -54 -22 -119 22 -45 30 -45 31 -27 54 20 29 34 34 86 32 36 -2 42 -6 62 -44z m-186 -27 c18 -22 9 -60 -16 -64 -23 -3 -50 37 -41 62 8 20 41 21 57 2z m248 -86 c4 -24 -19 -50 -44 -50 -22 0 -27 40 -8 61 23 25 48 20 52 -11z"/>
<path d="M193 373 c-37 -7 -83 -57 -76 -82 5 -20 8 -19 46 19 23 22 44 40 48 40 4 0 9 7 13 15 3 8 2 14 -2 14 -4 -1 -17 -4 -29 -6z"/>
<path d="M183 267 c-24 -6 -43 -14 -43 -18 0 -17 33 -30 72 -27 39 3 43 6 46 31 4 30 -3 31 -75 14z"/>
</g>
<g id="layer107" fill="#aa1e49" stroke="none">
<path d="M763 788 c-6 -7 -23 -39 -38 -70 -16 -32 -32 -58 -37 -58 -4 0 -8 -6 -8 -14 0 -14 73 -46 107 -46 16 0 22 8 26 33 4 17 9 47 13 64 3 18 3 41 -2 50 -4 10 -8 25 -8 33 -1 19 -40 25 -53 8z"/>
</g>
<g id="layer108" fill="#5d5d5e" stroke="none">
<path d="M485 1553 c53 -3 75 -9 91 -24 15 -14 31 -19 50 -16 l29 4 -31 2 c-17 0 -39 10 -49 21 -15 17 -29 20 -89 18 l-71 -2 70 -3z"/>
<path d="M913 1513 c15 -2 39 -2 55 0 15 2 2 4 -28 4 -30 0 -43 -2 -27 -4z"/>
<path d="M1375 1450 c-15 -6 -6 -9 33 -9 45 -1 54 -4 62 -23 6 -17 9 -18 9 -6 2 36 -58 58 -104 38z"/>
<path d="M20 1334 c-32 -51 -23 -110 22 -144 52 -39 154 -148 216 -230 65 -87 83 -108 57 -65 -56 91 -236 295 -261 295 -30 0 -50 102 -26 134 11 13 23 46 18 46 -3 0 -14 -16 -26 -36z"/>
<path d="M1502 1320 c0 -19 2 -27 5 -17 2 9 2 25 0 35 -3 9 -5 1 -5 -18z"/>
<path d="M1113 1017 c-48 -52 -107 -123 -131 -158 -24 -35 -33 -51 -20 -35 77 99 179 214 215 243 l42 35 84 -86 c108 -110 134 -112 181 -19 27 53 17 52 -12 -2 -43 -79 -62 -75 -165 29 -46 47 -89 86 -95 86 -5 0 -50 -42 -99 -93z"/>
<path d="M361 802 c13 -21 12 -24 -6 -34 -39 -21 -143 -137 -169 -189 -17 -35 -26 -69 -26 -101 0 -42 -3 -49 -29 -62 -30 -16 -72 -87 -70 -122 0 -10 7 2 15 28 13 43 61 98 85 98 5 0 9 24 9 53 0 29 9 70 19 92 25 55 100 145 150 179 45 31 50 46 24 67 -15 13 -15 12 -2 -9z"/>
<path d="M916 765 c-23 -35 -21 -40 27 -88 24 -23 51 -53 60 -67 l18 -25 -12 24 c-6 14 -32 47 -57 73 l-46 49 18 30 c21 35 15 39 -8 4z"/>
<path d="M665 703 c-34 -7 -168 -55 -208 -75 -21 -10 -59 -38 -84 -62 l-45 -43 3 -80 c4 -69 9 -90 44 -157 39 -77 72 -118 133 -164 30 -23 42 -25 135 -26 101 -1 193 18 167 34 -8 5 -4 9 12 13 12 4 24 3 26 -1 4 -13 60 -2 73 14 18 22 48 17 89 -16 33 -26 39 -28 50 -14 11 12 10 20 -7 42 -11 15 -29 29 -39 30 -10 2 -25 11 -31 20 -10 12 -10 19 2 32 19 20 32 100 16 100 -6 0 -11 9 -11 20 0 11 5 20 10 20 14 0 12 51 -3 77 -6 11 -27 48 -45 81 -18 33 -49 75 -68 93 -49 48 -59 29 -54 -105 1 -32 -2 -46 -9 -41 -6 3 -11 19 -11 36 0 32 -7 37 -24 14 -10 -14 -16 -14 -53 -1 -28 10 -45 11 -49 5 -8 -13 -10 -11 60 -39 80 -32 57 -36 -35 -7 -61 19 -73 27 -71 42 3 16 2 17 -12 6 -26 -22 -18 2 25 78 23 39 40 73 38 74 -2 2 -13 2 -24 0z m71 -240 c3 -10 11 -30 19 -46 13 -25 12 -29 -7 -47 -28 -26 -44 -25 -106 6 -95 47 -74 101 41 103 37 1 49 -3 53 -16z m-176 -57 c29 -36 -10 -85 -45 -56 -15 13 -20 51 -8 63 11 12 40 8 53 -7z m248 -58 c18 -18 15 -42 -7 -62 -43 -39 -83 12 -42 53 24 24 32 26 49 9z"/>
<path d="M662 588 c-14 -14 -16 -58 -2 -58 11 0 24 43 18 60 -2 7 -7 7 -16 -2z"/>
<path d="M1040 298 c0 -7 -3 -23 -6 -35 -4 -16 0 -23 15 -28 25 -8 49 -51 61 -108 7 -35 8 -37 9 -12 1 40 -32 111 -58 124 -16 9 -19 18 -14 41 3 17 3 30 -1 30 -3 0 -6 -6 -6 -12z"/>
<path d="M86 225 c4 -9 16 -21 28 -27 19 -10 19 -9 -3 16 -28 30 -33 32 -25 11z"/>
<path d="M155 179 c26 -10 83 -11 88 -1 3 4 -20 7 -51 8 -36 0 -49 -2 -37 -7z"/>
<path d="M280 177 c13 -18 101 -67 117 -67 4 1 -14 12 -42 27 -27 14 -59 33 -70 42 -19 15 -19 15 -5 -2z"/>
<path d="M490 84 c30 -7 56 -11 58 -9 6 5 -70 25 -93 24 -11 -1 5 -7 35 -15z"/>
<path d="M1081 46 l-24 -31 28 27 c16 15 27 29 24 31 -2 3 -15 -10 -28 -27z"/>
<path d="M595 60 c19 -8 73 -14 64 -6 -2 2 -22 6 -44 9 -28 5 -34 4 -20 -3z"/>
<path d="M810 59 c-20 -7 -17 -7 13 -3 31 4 44 0 68 -20 17 -15 36 -26 42 -26 7 0 -2 9 -19 19 -18 11 -35 24 -38 30 -8 13 -30 13 -66 0z"/>
</g>
<g id="layer109" fill="#0580d5" stroke="none">
<path d="M453 1484 c-35 -40 -46 -95 -32 -164 17 -85 40 -120 82 -120 35 0 85 39 73 58 -3 5 1 18 9 28 8 10 15 40 15 66 0 41 -6 54 -43 100 -50 61 -73 68 -104 32z"/>
<path d="M1165 1400 c-4 -6 30 -10 95 -10 65 0 99 4 95 10 -3 6 -46 10 -95 10 -49 0 -92 -4 -95 -10z"/>
<path d="M350 1306 c0 -60 2 -67 33 -95 36 -35 48 -22 24 26 -8 15 -20 52 -28 81 -7 28 -16 52 -21 52 -4 0 -8 -29 -8 -64z"/>
<path d="M870 1346 c0 -9 39 -13 51 -5 10 6 4 9 -18 9 -18 0 -33 -2 -33 -4z"/>
<path d="M1120 1337 c-181 -10 -207 -20 -137 -50 23 -11 47 -20 52 -21 70 -15 180 -91 284 -194 111 -111 121 -105 137 70 5 63 4 82 -7 89 -10 6 -10 9 -1 9 23 0 11 45 -19 69 -28 22 -93 42 -129 39 -8 -1 -89 -5 -180 -11z"/>
<path d="M666 1303 c-10 -26 4 -29 89 -23 44 4 74 7 68 8 -7 1 -16 2 -19 1 -4 0 -10 4 -14 11 -4 6 -32 13 -62 15 -45 3 -58 1 -62 -12z"/>
<path d="M98 1298 c7 -7 12 -21 12 -33 0 -14 10 -24 30 -32 16 -6 34 -22 39 -35 5 -12 17 -30 28 -39 30 -27 68 -82 65 -93 -2 -6 2 -5 9 2 11 10 6 27 -25 90 -42 86 -59 109 -98 135 -32 20 -79 24 -60 5z"/>
<path d="M733 1231 c-71 -6 -72 -6 -106 -51 -19 -25 -51 -54 -71 -65 -43 -24 -56 -56 -56 -144 l0 -67 58 -12 c31 -6 83 -25 115 -42 41 -21 72 -30 106 -30 26 0 52 -5 58 -11 7 -7 15 4 27 38 34 95 46 160 53 276 l6 117 -59 -2 c-32 -1 -91 -4 -131 -7z"/>
<path d="M1020 1142 c-28 -14 -36 -24 -38 -51 -2 -21 0 -31 7 -26 6 3 11 -1 11 -9 0 -9 -6 -15 -12 -13 -13 2 -19 -21 -7 -25 8 -4 99 118 99 132 0 14 -20 12 -60 -8z"/>
<path d="M1105 1107 c-39 -45 -67 -89 -61 -94 7 -7 96 84 96 98 0 13 -23 10 -35 -4z m-15 -52 c-7 -9 -15 -13 -18 -10 -3 2 1 11 8 20 7 9 15 13 18 10 3 -2 -1 -11 -8 -20z"/>
<path d="M390 1073 c0 -41 19 -123 32 -140 5 -7 7 -16 5 -20 -3 -5 1 -19 8 -32 11 -22 13 -15 18 65 3 49 9 100 12 114 6 23 3 27 -34 36 l-41 11 0 -34z"/>
<path d="M460 866 c0 -25 1 -26 63 -24 l62 2 -53 3 c-29 2 -50 8 -47 12 2 5 -2 14 -10 21 -13 11 -15 8 -15 -14z"/>
<path d="M419 741 c-13 -10 -39 -26 -58 -35 -36 -19 -77 -60 -86 -88 -4 -10 -13 -18 -20 -18 -9 0 -12 -6 -9 -15 4 -8 1 -15 -4 -15 -16 0 -28 -73 -13 -78 6 -2 11 -10 11 -18 0 -9 -4 -12 -10 -9 -20 12 -9 -15 15 -39 28 -28 32 -58 11 -76 -13 -10 -10 -16 20 -42 18 -16 34 -36 34 -42 0 -20 37 -49 51 -40 7 4 10 3 5 -4 -3 -6 -2 -13 4 -17 15 -9 12 21 -4 34 -23 19 -77 147 -83 199 -11 92 45 154 218 243 35 19 80 39 99 45 34 12 33 12 -32 13 -38 1 -68 5 -68 11 0 17 -56 11 -81 -9z"/>
<path d="M665 703 c-34 -7 -168 -55 -208 -75 -21 -10 -59 -38 -84 -62 l-45 -43 3 -80 c4 -69 9 -90 44 -157 39 -77 72 -118 133 -164 30 -23 42 -25 135 -26 101 -1 193 18 167 34 -8 5 -4 9 12 13 12 4 24 3 26 -1 4 -13 60 -2 73 14 18 22 48 17 89 -16 33 -26 39 -28 50 -14 11 12 10 20 -7 42 -11 15 -29 29 -39 30 -10 2 -25 11 -31 20 -10 12 -10 19 2 32 19 20 32 100 16 100 -6 0 -11 9 -11 20 0 11 5 20 10 20 14 0 12 51 -3 77 -6 11 -27 48 -45 81 -18 33 -49 75 -68 93 -49 48 -59 29 -54 -103 1 -39 -1 -47 -14 -42 -8 3 -12 12 -9 20 3 8 2 22 -2 32 -6 15 -8 15 -15 -5 -8 -20 -10 -21 -50 -7 -50 17 -76 7 -30 -12 18 -8 36 -11 41 -8 5 3 9 0 9 -6 0 -6 4 -9 9 -6 5 3 14 -1 21 -9 17 -21 5 -19 -90 11 -45 14 -83 31 -86 38 -3 7 14 45 37 84 23 40 40 74 38 75 -2 2 -13 2 -24 0z m71 -240 c3 -10 11 -30 19 -46 13 -25 12 -29 -7 -47 -28 -26 -44 -25 -106 6 -95 47 -74 101 41 103 37 1 49 -3 53 -16z m-176 -57 c29 -36 -10 -85 -45 -56 -15 13 -20 51 -8 63 11 12 40 8 53 -7z m248 -58 c18 -18 15 -42 -7 -62 -43 -39 -83 12 -42 53 24 24 32 26 49 9z"/>
<path d="M133 333 c-18 -7 -16 -33 2 -28 51 16 50 16 35 25 -16 11 -19 11 -37 3z"/>
<path d="M185 267 c-50 -13 -50 -13 -35 -32 14 -17 50 -21 50 -5 0 6 14 10 30 10 23 0 30 4 30 20 0 22 -12 23 -75 7z"/>
</g>
<g id="layer110" fill="#de1955" stroke="none">
<path d="M760 785 c-7 -8 -10 -15 -6 -15 4 0 -3 -18 -14 -41 -22 -43 -20 -75 4 -66 8 3 20 -1 26 -9 32 -38 56 2 46 78 -3 24 -5 49 -5 56 -1 17 -36 15 -51 -3z"/>
</g>
<g id="layer111" fill="#6e7a81" stroke="none">
<path d="M485 1553 c47 -3 76 -10 90 -21 20 -17 20 -17 1 6 -17 19 -27 22 -90 20 l-71 -2 70 -3z"/>
<path d="M362 1523 c-15 -16 -19 -21 -7 -12 11 9 29 21 40 27 11 6 14 12 8 12 -7 0 -25 -12 -41 -27z"/>
<path d="M943 1513 c9 -2 25 -2 35 0 9 3 1 5 -18 5 -19 0 -27 -2 -17 -5z"/>
<path d="M21 1336 c-36 -58 -24 -119 31 -156 l33 -22 -33 29 c-44 38 -52 88 -23 143 25 49 20 53 -8 6z"/>
<path d="M1514 1180 c0 -58 1 -81 3 -52 2 28 2 76 0 105 -2 28 -3 5 -3 -53z"/>
<path d="M1340 975 c19 -19 36 -35 39 -35 3 0 -10 16 -29 35 -19 19 -36 35 -39 35 -3 0 10 -16 29 -35z"/>
<path d="M901 729 c0 -8 22 -32 47 -54 l47 -39 -45 49 c-25 27 -46 52 -47 54 -2 2 -3 -2 -2 -10z"/>
<path d="M661 582 c-13 -25 -14 -42 -2 -42 10 0 25 50 17 57 -2 3 -9 -4 -15 -15z"/>
<path d="M787 541 c-4 -18 -7 -19 -47 -5 -50 17 -76 7 -30 -12 18 -8 36 -11 41 -8 5 3 9 0 9 -7 0 -7 3 -9 7 -6 3 4 15 0 25 -10 10 -9 21 -13 26 -8 4 4 2 10 -4 12 -6 2 -9 14 -7 27 6 29 -13 44 -20 17z"/>
<path d="M1054 405 c0 -49 1 -71 3 -48 2 23 2 64 0 90 -2 26 -3 8 -3 -42z"/>
<path d="M968 3 c12 -2 32 -2 45 0 12 2 2 4 -23 4 -25 0 -35 -2 -22 -4z"/>
</g>
<g id="layer112" fill="#b67185" stroke="none">
</g>
<g id="layer113" fill="#2facfe" stroke="none">
<path d="M470 1478 c-43 -45 -53 -77 -45 -142 8 -77 45 -136 85 -136 32 0 63 31 65 66 0 14 7 29 14 33 10 7 12 23 7 65 -4 31 -12 54 -16 51 -5 -3 -12 6 -16 20 -5 22 -50 65 -68 65 -3 0 -15 -10 -26 -22z"/>
<path d="M1110 1325 c0 -10 -11 -15 -35 -15 -19 0 -35 5 -35 10 0 6 -18 10 -40 10 -22 0 -40 -4 -40 -9 0 -5 46 -32 103 -59 119 -59 235 -143 277 -200 16 -23 38 -45 48 -51 22 -12 48 2 37 19 -4 7 -3 15 3 19 15 9 27 61 13 61 -16 0 -13 27 4 34 19 7 21 82 3 89 -10 4 -10 6 0 6 6 1 12 11 12 24 0 33 -55 57 -130 57 -33 0 -60 4 -60 10 0 6 -33 10 -80 10 -64 0 -80 -3 -80 -15z"/>
<path d="M115 1279 c9 -16 22 -32 29 -35 7 -3 28 -25 46 -50 19 -24 40 -44 48 -44 7 0 12 3 10 8 -29 63 -63 114 -82 122 -13 5 -27 14 -31 19 -3 6 -13 11 -21 11 -12 0 -12 -4 1 -31z"/>
<path d="M738 1231 c-67 -6 -68 -6 -118 -63 -28 -31 -60 -60 -70 -63 -34 -11 -71 -135 -40 -135 6 0 10 -7 10 -15 0 -8 -4 -15 -10 -15 -5 0 -10 -9 -10 -20 0 -16 7 -20 33 -20 34 0 194 -53 211 -70 5 -5 29 -10 53 -10 41 0 43 2 63 46 12 25 19 52 16 60 -3 9 -1 12 4 9 11 -7 14 21 10 103 -1 42 1 52 14 52 13 0 16 13 16 73 l0 72 -58 1 c-31 0 -87 -2 -124 -5z"/>
<path d="M1112 1108 c-7 -7 -12 -19 -12 -27 0 -11 4 -10 20 4 21 19 26 35 12 35 -4 0 -13 -5 -20 -12z"/>
<path d="M590 671 c-122 -51 -156 -70 -231 -129 -26 -22 -29 -29 -29 -84 0 -63 32 -144 86 -215 13 -17 24 -35 24 -39 0 -5 20 -27 44 -50 43 -40 91 -60 102 -43 7 12 121 12 128 0 7 -11 76 3 85 17 9 14 51 25 51 14 0 -16 44 -1 58 20 17 24 57 23 82 -2 20 -20 70 -28 70 -12 0 14 -44 50 -65 54 -17 3 -20 11 -18 47 1 23 7 49 14 57 6 8 8 14 3 14 -5 0 -2 5 6 11 11 8 12 12 3 16 -16 6 -17 43 -2 43 32 0 -41 156 -110 232 -54 61 -61 54 -64 -65 l-2 -82 -33 3 c-46 5 -165 48 -176 64 -5 9 4 34 28 73 57 94 51 100 -54 56z m155 -212 c20 -18 35 -40 35 -54 0 -12 11 -34 25 -49 14 -15 25 -33 25 -41 0 -14 -38 -55 -50 -55 -17 0 -39 28 -42 55 -3 27 -7 30 -48 35 -25 3 -54 11 -64 17 -16 9 -24 6 -45 -13 -43 -40 -91 -27 -91 25 0 31 27 61 55 61 11 0 26 5 33 12 16 16 71 35 104 37 17 1 40 -10 63 -30z"/>
<path d="M204 261 c4 -5 0 -12 -6 -14 -7 -3 1 -6 19 -6 25 -1 31 2 27 14 -4 8 -15 15 -26 15 -10 0 -17 -4 -14 -9z"/>
</g>
<g id="layer114" fill="#a9abac" stroke="none">
<path d="M433 1553 c9 -2 25 -2 35 0 9 3 1 5 -18 5 -19 0 -27 -2 -17 -5z"/>
<path d="M525 1553 c17 -3 37 -10 45 -16 13 -10 13 -10 1 6 -8 10 -25 16 -45 16 l-31 -2 30 -4z"/>
<path d="M368 1528 c-13 -13 -17 -18 -8 -12 8 6 24 16 35 22 11 6 15 12 8 12 -7 0 -22 -10 -35 -22z"/>
<path d="M1513 1230 c0 -30 2 -43 4 -27 2 15 2 39 0 55 -2 15 -4 2 -4 -28z"/>
<path d="M1194 1088 c-19 -23 -19 -23 2 -6 19 17 21 17 39 0 19 -17 19 -17 1 6 -11 12 -20 22 -21 22 -1 0 -10 -10 -21 -22z"/>
<path d="M150 1087 c0 -2 15 -16 33 -33 l32 -29 -29 33 c-28 30 -36 37 -36 29z"/>
<path d="M280 705 c-24 -25 -42 -45 -39 -45 3 0 25 20 49 45 24 25 42 45 39 45 -3 0 -25 -20 -49 -45z"/>
<path d="M900 734 c0 -6 21 -30 48 -54 l47 -45 -45 50 c-25 27 -46 52 -47 54 -2 2 -3 0 -3 -5z"/>
<path d="M662 578 c-14 -14 -16 -38 -3 -38 8 0 23 41 17 47 -1 1 -8 -3 -14 -9z"/>
<path d="M686 541 c-5 -7 6 -12 72 -26 6 -2 12 1 12 6 0 5 -4 9 -10 9 -16 0 -23 2 -47 11 -12 4 -25 4 -27 0z"/>
<path d="M788 530 c-7 -24 -3 -38 8 -28 3 4 4 17 2 30 l-3 23 -7 -25z"/>
<path d="M205 180 l-40 -7 37 -2 c20 0 40 4 43 9 3 6 5 9 3 9 -2 -1 -21 -5 -43 -9z"/>
<path d="M1112 120 c0 -19 2 -27 5 -17 2 9 2 25 0 35 -3 9 -5 1 -5 -18z"/>
<path d="M693 43 c15 -2 39 -2 55 0 15 2 2 4 -28 4 -30 0 -43 -2 -27 -4z"/>
</g>
<g id="layer115" fill="#d4d4d4" stroke="none">
<path d="M3 1275 c0 -22 2 -30 4 -17 2 12 2 30 0 40 -3 9 -5 -1 -4 -23z"/>
</g>


</svg>